<svg xmlns="http://www.w3.org/2000/svg" viewBox="-18 -18 36 36">
<!-- statut: RequiresDecomposition colonnes=4 -->
<path d="M15 -0 L14.968 -0.981 L14.872 -1.958 L14.712 -2.926 L14.489 -3.882 L14.204 -4.822 L13.858 -5.74 L13.453 -6.634 L12.99 -7.5 L12.472 -8.334 L11.9 -9.131 L11.278 -9.89 L10.607 -10.607 L9.89 -11.278 L9.131 -11.9 L8.334 -12.472 L7.5 -12.99 L6.634 -13.453 L5.74 -13.858 L4.822 -14.204 L3.882 -14.489 L2.926 -14.712 L1.958 -14.872 L0.981 -14.968 L0 -15 L-0.981 -14.968 L-1.958 -14.872 L-2.926 -14.712 L-3.882 -14.489 L-4.822 -14.204 L-5.74 -13.858 L-6.634 -13.453 L-7.5 -12.99 L-8.334 -12.472 L-9.131 -11.9 L-9.89 -11.278 L-10.607 -10.607 L-11.278 -9.89 L-11.9 -9.131 L-12.472 -8.334 L-12.99 -7.5 L-13.453 -6.634 L-13.858 -5.74 L-14.204 -4.822 L-14.489 -3.882 L-14.712 -2.926 L-14.872 -1.958 L-14.968 -0.981 L-15 -0 L-14.968 0.981 L-14.872 1.958 L-14.712 2.926 L-14.489 3.882 L-14.204 4.822 L-13.858 5.74 L-13.453 6.634 L-12.99 7.5 L-12.472 8.334 L-11.9 9.131 L-11.278 9.89 L-10.607 10.607 L-9.89 11.278 L-9.131 11.9 L-8.334 12.472 L-7.5 12.99 L-6.634 13.453 L-5.74 13.858 L-4.822 14.204 L-3.882 14.489 L-2.926 14.712 L-1.958 14.872 L-0.981 14.968 L0 15 L0.981 14.968 L1.958 14.872 L2.926 14.712 L3.882 14.489 L4.822 14.204 L5.74 13.858 L6.634 13.453 L7.5 12.99 L8.334 12.472 L9.131 11.9 L9.89 11.278 L10.607 10.607 L11.278 9.89 L11.9 9.131 L12.472 8.334 L12.99 7.5 L13.453 6.634 L13.858 5.74 L14.204 4.822 L14.489 3.882 L14.712 2.926 L14.872 1.958 L14.968 0.981 Z" fill="none" stroke="#111" stroke-width="0.15"/>
<path d="M8 -0 L7.983 -0.523 L7.932 -1.044 L7.846 -1.561 L7.727 -2.071 L7.575 -2.572 L7.391 -3.061 L7.175 -3.538 L6.928 -4 L6.652 -4.445 L6.347 -4.87 L6.015 -5.275 L5.657 -5.657 L5.275 -6.015 L4.87 -6.347 L4.445 -6.652 L4 -6.928 L3.538 -7.175 L3.061 -7.391 L2.572 -7.575 L2.071 -7.727 L1.561 -7.846 L1.044 -7.932 L0.523 -7.983 L0 -8 L-0.523 -7.983 L-1.044 -7.932 L-1.561 -7.846 L-2.071 -7.727 L-2.572 -7.575 L-3.061 -7.391 L-3.538 -7.175 L-4 -6.928 L-4.445 -6.652 L-4.87 -6.347 L-5.275 -6.015 L-5.657 -5.657 L-6.015 -5.275 L-6.347 -4.87 L-6.652 -4.445 L-6.928 -4 L-7.175 -3.538 L-7.391 -3.061 L-7.575 -2.572 L-7.727 -2.071 L-7.846 -1.561 L-7.932 -1.044 L-7.983 -0.523 L-8 -0 L-7.983 0.523 L-7.932 1.044 L-7.846 1.561 L-7.727 2.071 L-7.575 2.572 L-7.391 3.061 L-7.175 3.538 L-6.928 4 L-6.652 4.445 L-6.347 4.87 L-6.015 5.275 L-5.657 5.657 L-5.275 6.015 L-4.87 6.347 L-4.445 6.652 L-4 6.928 L-3.538 7.175 L-3.061 7.391 L-2.572 7.575 L-2.071 7.727 L-1.561 7.846 L-1.044 7.932 L-0.523 7.983 L0 8 L0.523 7.983 L1.044 7.932 L1.561 7.846 L2.071 7.727 L2.572 7.575 L3.061 7.391 L3.538 7.175 L4 6.928 L4.445 6.652 L4.87 6.347 L5.275 6.015 L5.657 5.657 L6.015 5.275 L6.347 4.87 L6.652 4.445 L6.928 4 L7.175 3.538 L7.391 3.061 L7.575 2.572 L7.727 2.071 L7.846 1.561 L7.932 1.044 L7.983 0.523 Z" fill="none" stroke="#c22" stroke-width="0.15"/>
<line x1="15" y1="-0" x2="8" y2="-0" stroke="#999" stroke-width="0.12"/>
<line x1="14.792" y1="-2.442" x2="7.889" y2="-1.302" stroke="#999" stroke-width="0.12"/>
<line x1="14.204" y1="-4.822" x2="7.575" y2="-2.571" stroke="#999" stroke-width="0.12"/>
<line x1="13.221" y1="-7.067" x2="7.051" y2="-3.769" stroke="#999" stroke-width="0.12"/>
<line x1="11.9" y1="-9.131" x2="6.347" y2="-4.87" stroke="#999" stroke-width="0.12"/>
<line x1="10.249" y1="-10.942" x2="5.466" y2="-5.836" stroke="#999" stroke-width="0.12"/>
<line x1="8.334" y1="-12.472" x2="4.445" y2="-6.652" stroke="#999" stroke-width="0.12"/>
<line x1="6.187" y1="-13.655" x2="3.3" y2="-7.283" stroke="#999" stroke-width="0.12"/>
<line x1="3.882" y1="-14.489" x2="2.07" y2="-7.727" stroke="#999" stroke-width="0.12"/>
<line x1="1.469" y1="-14.92" x2="0.784" y2="-7.957" stroke="#999" stroke-width="0.12"/>
<line x1="0" y1="-15" x2="0" y2="-8" stroke="#999" stroke-width="0.12"/>
<path d="M15 -0 L14.984 -0.491 L14.968 -0.981 L14.92 -1.469 L14.872 -1.958 L14.792 -2.442 L14.712 -2.926 L14.6 -3.404 L14.489 -3.882 L14.347 -4.352 L14.204 -4.822 L14.031 -5.281 L13.858 -5.74 L13.655 -6.187 L13.453 -6.634 L13.221 -7.067 L12.99 -7.5 L12.731 -7.917 L12.472 -8.334 L12.186 -8.732 L11.9 -9.131 L11.589 -9.511 L11.278 -9.89 L10.942 -10.249 L10.607 -10.607 L10.249 -10.942 L9.89 -11.278 L9.511 -11.589 L9.131 -11.9 L8.732 -12.186 L8.334 -12.472 L7.917 -12.731 L7.5 -12.99 L7.067 -13.221 L6.634 -13.453 L6.187 -13.655 L5.74 -13.858 L5.281 -14.031 L4.822 -14.204 L4.352 -14.347 L3.882 -14.489 L3.404 -14.6 L2.926 -14.712 L2.442 -14.792 L1.958 -14.872 L1.469 -14.92 L0.981 -14.968 L0.491 -14.984 L0 -15 " fill="none" stroke="#1560c8" stroke-width="0.2"/>
<path d="M8 -0 L7.991 -0.262 L7.983 -0.523 L7.957 -0.784 L7.932 -1.044 L7.889 -1.302 L7.846 -1.561 L7.787 -1.816 L7.727 -2.07 L7.651 -2.321 L7.575 -2.571 L7.483 -2.816 L7.391 -3.061 L7.283 -3.3 L7.175 -3.538 L7.051 -3.769 L6.928 -4 L6.79 -4.222 L6.652 -4.445 L6.499 -4.658 L6.347 -4.87 L6.181 -5.073 L6.015 -5.275 L5.836 -5.466 L5.657 -5.657 L5.466 -5.836 L5.275 -6.015 L5.073 -6.181 L4.87 -6.347 L4.658 -6.499 L4.445 -6.652 L4.222 -6.79 L4 -6.928 L3.769 -7.051 L3.538 -7.175 L3.3 -7.283 L3.061 -7.391 L2.816 -7.483 L2.571 -7.575 L2.321 -7.651 L2.07 -7.727 L1.816 -7.787 L1.561 -7.846 L1.302 -7.889 L1.044 -7.932 L0.784 -7.957 L0.523 -7.983 L0.262 -7.991 L0 -8 " fill="none" stroke="#e07000" stroke-width="0.2"/>
<line x1="0" y1="-15" x2="0" y2="-8" stroke="#999" stroke-width="0.12"/>
<line x1="-2.442" y1="-14.792" x2="-1.302" y2="-7.889" stroke="#999" stroke-width="0.12"/>
<line x1="-4.822" y1="-14.204" x2="-2.571" y2="-7.575" stroke="#999" stroke-width="0.12"/>
<line x1="-7.067" y1="-13.221" x2="-3.769" y2="-7.051" stroke="#999" stroke-width="0.12"/>
<line x1="-9.131" y1="-11.9" x2="-4.87" y2="-6.347" stroke="#999" stroke-width="0.12"/>
<line x1="-10.942" y1="-10.249" x2="-5.836" y2="-5.466" stroke="#999" stroke-width="0.12"/>
<line x1="-12.472" y1="-8.334" x2="-6.652" y2="-4.445" stroke="#999" stroke-width="0.12"/>
<line x1="-13.655" y1="-6.187" x2="-7.283" y2="-3.3" stroke="#999" stroke-width="0.12"/>
<line x1="-14.489" y1="-3.882" x2="-7.727" y2="-2.07" stroke="#999" stroke-width="0.12"/>
<line x1="-14.92" y1="-1.469" x2="-7.957" y2="-0.784" stroke="#999" stroke-width="0.12"/>
<line x1="-15" y1="-0" x2="-8" y2="-0" stroke="#999" stroke-width="0.12"/>
<path d="M0 -15 L-0.491 -14.984 L-0.981 -14.968 L-1.469 -14.92 L-1.958 -14.872 L-2.442 -14.792 L-2.926 -14.712 L-3.404 -14.6 L-3.882 -14.489 L-4.352 -14.347 L-4.822 -14.204 L-5.281 -14.031 L-5.74 -13.858 L-6.187 -13.655 L-6.634 -13.453 L-7.067 -13.221 L-7.5 -12.99 L-7.917 -12.731 L-8.334 -12.472 L-8.732 -12.186 L-9.131 -11.9 L-9.511 -11.589 L-9.89 -11.278 L-10.249 -10.942 L-10.607 -10.607 L-10.942 -10.249 L-11.278 -9.89 L-11.589 -9.511 L-11.9 -9.131 L-12.186 -8.732 L-12.472 -8.334 L-12.731 -7.917 L-12.99 -7.5 L-13.221 -7.067 L-13.453 -6.634 L-13.655 -6.187 L-13.858 -5.74 L-14.031 -5.281 L-14.204 -4.822 L-14.347 -4.352 L-14.489 -3.882 L-14.6 -3.404 L-14.712 -2.926 L-14.792 -2.442 L-14.872 -1.958 L-14.92 -1.469 L-14.968 -0.981 L-14.984 -0.491 L-15 -0 " fill="none" stroke="#1560c8" stroke-width="0.2"/>
<path d="M0 -8 L-0.262 -7.991 L-0.523 -7.983 L-0.784 -7.957 L-1.044 -7.932 L-1.302 -7.889 L-1.561 -7.846 L-1.816 -7.787 L-2.07 -7.727 L-2.321 -7.651 L-2.571 -7.575 L-2.816 -7.483 L-3.061 -7.391 L-3.3 -7.283 L-3.538 -7.175 L-3.769 -7.051 L-4 -6.928 L-4.222 -6.79 L-4.445 -6.652 L-4.658 -6.499 L-4.87 -6.347 L-5.073 -6.181 L-5.275 -6.015 L-5.466 -5.836 L-5.657 -5.657 L-5.836 -5.466 L-6.015 -5.275 L-6.181 -5.073 L-6.347 -4.87 L-6.499 -4.658 L-6.652 -4.445 L-6.79 -4.222 L-6.928 -4 L-7.051 -3.769 L-7.175 -3.538 L-7.283 -3.3 L-7.391 -3.061 L-7.483 -2.816 L-7.575 -2.571 L-7.651 -2.321 L-7.727 -2.07 L-7.787 -1.816 L-7.846 -1.561 L-7.889 -1.302 L-7.932 -1.044 L-7.957 -0.784 L-7.983 -0.523 L-7.991 -0.262 L-8 -0 " fill="none" stroke="#e07000" stroke-width="0.2"/>
<line x1="-15" y1="-0" x2="-8" y2="-0" stroke="#999" stroke-width="0.12"/>
<line x1="-14.792" y1="2.442" x2="-7.889" y2="1.302" stroke="#999" stroke-width="0.12"/>
<line x1="-14.204" y1="4.822" x2="-7.575" y2="2.571" stroke="#999" stroke-width="0.12"/>
<line x1="-13.221" y1="7.067" x2="-7.051" y2="3.769" stroke="#999" stroke-width="0.12"/>
<line x1="-11.9" y1="9.131" x2="-6.347" y2="4.87" stroke="#999" stroke-width="0.12"/>
<line x1="-10.249" y1="10.942" x2="-5.466" y2="5.836" stroke="#999" stroke-width="0.12"/>
<line x1="-8.334" y1="12.472" x2="-4.445" y2="6.652" stroke="#999" stroke-width="0.12"/>
<line x1="-6.187" y1="13.655" x2="-3.3" y2="7.283" stroke="#999" stroke-width="0.12"/>
<line x1="-3.882" y1="14.489" x2="-2.07" y2="7.727" stroke="#999" stroke-width="0.12"/>
<line x1="-1.469" y1="14.92" x2="-0.784" y2="7.957" stroke="#999" stroke-width="0.12"/>
<line x1="0" y1="15" x2="0" y2="8" stroke="#999" stroke-width="0.12"/>
<path d="M-15 -0 L-14.984 0.491 L-14.968 0.981 L-14.92 1.469 L-14.872 1.958 L-14.792 2.442 L-14.712 2.926 L-14.6 3.404 L-14.489 3.882 L-14.347 4.352 L-14.204 4.822 L-14.031 5.281 L-13.858 5.74 L-13.655 6.187 L-13.453 6.634 L-13.221 7.067 L-12.99 7.5 L-12.731 7.917 L-12.472 8.334 L-12.186 8.732 L-11.9 9.131 L-11.589 9.511 L-11.278 9.89 L-10.942 10.249 L-10.607 10.607 L-10.249 10.942 L-9.89 11.278 L-9.511 11.589 L-9.131 11.9 L-8.732 12.186 L-8.334 12.472 L-7.917 12.731 L-7.5 12.99 L-7.067 13.221 L-6.634 13.453 L-6.187 13.655 L-5.74 13.858 L-5.281 14.031 L-4.822 14.204 L-4.352 14.347 L-3.882 14.489 L-3.404 14.6 L-2.926 14.712 L-2.442 14.792 L-1.958 14.872 L-1.469 14.92 L-0.981 14.968 L-0.491 14.984 L0 15 " fill="none" stroke="#1560c8" stroke-width="0.2"/>
<path d="M-8 -0 L-7.991 0.262 L-7.983 0.523 L-7.957 0.784 L-7.932 1.044 L-7.889 1.302 L-7.846 1.561 L-7.787 1.816 L-7.727 2.07 L-7.651 2.321 L-7.575 2.571 L-7.483 2.816 L-7.391 3.061 L-7.283 3.3 L-7.175 3.538 L-7.051 3.769 L-6.928 4 L-6.79 4.222 L-6.652 4.445 L-6.499 4.658 L-6.347 4.87 L-6.181 5.073 L-6.015 5.275 L-5.836 5.466 L-5.657 5.657 L-5.466 5.836 L-5.275 6.015 L-5.073 6.181 L-4.87 6.347 L-4.658 6.499 L-4.445 6.652 L-4.222 6.79 L-4 6.928 L-3.769 7.051 L-3.538 7.175 L-3.3 7.283 L-3.061 7.391 L-2.816 7.483 L-2.571 7.575 L-2.321 7.651 L-2.07 7.727 L-1.816 7.787 L-1.561 7.846 L-1.302 7.889 L-1.044 7.932 L-0.784 7.957 L-0.523 7.983 L-0.262 7.991 L0 8 " fill="none" stroke="#e07000" stroke-width="0.2"/>
<line x1="0" y1="15" x2="0" y2="8" stroke="#999" stroke-width="0.12"/>
<line x1="2.442" y1="14.792" x2="1.302" y2="7.889" stroke="#999" stroke-width="0.12"/>
<line x1="4.822" y1="14.204" x2="2.571" y2="7.575" stroke="#999" stroke-width="0.12"/>
<line x1="7.067" y1="13.221" x2="3.769" y2="7.051" stroke="#999" stroke-width="0.12"/>
<line x1="9.131" y1="11.9" x2="4.87" y2="6.347" stroke="#999" stroke-width="0.12"/>
<line x1="10.942" y1="10.249" x2="5.836" y2="5.466" stroke="#999" stroke-width="0.12"/>
<line x1="12.472" y1="8.334" x2="6.652" y2="4.445" stroke="#999" stroke-width="0.12"/>
<line x1="13.655" y1="6.187" x2="7.283" y2="3.3" stroke="#999" stroke-width="0.12"/>
<line x1="14.489" y1="3.882" x2="7.727" y2="2.07" stroke="#999" stroke-width="0.12"/>
<line x1="14.92" y1="1.469" x2="7.957" y2="0.784" stroke="#999" stroke-width="0.12"/>
<line x1="15" y1="-0" x2="8" y2="-0" stroke="#999" stroke-width="0.12"/>
<path d="M0 15 L0.491 14.984 L0.981 14.968 L1.469 14.92 L1.958 14.872 L2.442 14.792 L2.926 14.712 L3.404 14.6 L3.882 14.489 L4.352 14.347 L4.822 14.204 L5.281 14.031 L5.74 13.858 L6.187 13.655 L6.634 13.453 L7.067 13.221 L7.5 12.99 L7.917 12.731 L8.334 12.472 L8.732 12.186 L9.131 11.9 L9.511 11.589 L9.89 11.278 L10.249 10.942 L10.607 10.607 L10.942 10.249 L11.278 9.89 L11.589 9.511 L11.9 9.131 L12.186 8.732 L12.472 8.334 L12.731 7.917 L12.99 7.5 L13.221 7.067 L13.453 6.634 L13.655 6.187 L13.858 5.74 L14.031 5.281 L14.204 4.822 L14.347 4.352 L14.489 3.882 L14.6 3.404 L14.712 2.926 L14.792 2.442 L14.872 1.958 L14.92 1.469 L14.968 0.981 L14.984 0.491 L15 -0 " fill="none" stroke="#1560c8" stroke-width="0.2"/>
<path d="M0 8 L0.262 7.991 L0.523 7.983 L0.784 7.957 L1.044 7.932 L1.302 7.889 L1.561 7.846 L1.816 7.787 L2.07 7.727 L2.321 7.651 L2.571 7.575 L2.816 7.483 L3.061 7.391 L3.3 7.283 L3.538 7.175 L3.769 7.051 L4 6.928 L4.222 6.79 L4.445 6.652 L4.658 6.499 L4.87 6.347 L5.073 6.181 L5.275 6.015 L5.466 5.836 L5.657 5.657 L5.836 5.466 L6.015 5.275 L6.181 5.073 L6.347 4.87 L6.499 4.658 L6.652 4.445 L6.79 4.222 L6.928 4 L7.051 3.769 L7.175 3.538 L7.283 3.3 L7.391 3.061 L7.483 2.816 L7.575 2.571 L7.651 2.321 L7.727 2.07 L7.787 1.816 L7.846 1.561 L7.889 1.302 L7.932 1.044 L7.957 0.784 L7.983 0.523 L7.991 0.262 L8 -0 " fill="none" stroke="#e07000" stroke-width="0.2"/>
<path d="M15.000 0.000 L8.000 0.000 L14.984 -0.490 L7.991 -0.261 L14.969 -0.944 L7.979 -0.560 L14.920 -1.469 L7.957 -0.783 L14.869 -1.976 L7.934 -1.025 L14.792 -2.442 L7.889 -1.302 L14.715 -2.908 L7.842 -1.578 L14.600 -3.404 L7.787 -1.815 L14.502 -3.828 L7.711 -2.124 L14.347 -4.352 L7.651 -2.321 L14.204 -4.822 L7.575 -2.571 L14.031 -5.281 L7.483 -2.816 L13.871 -5.705 L7.375 -3.095 L13.655 -6.187 L7.283 -3.300 L13.444 -6.651 L7.183 -3.521 L13.221 -7.067 L7.051 -3.769 L12.999 -7.483 L6.918 -4.016 L12.731 -7.917 L6.790 -4.222 L12.502 -8.286 L6.619 -4.490 L12.186 -8.732 L6.499 -4.657 L11.900 -9.131 L6.347 -4.870 L11.589 -9.511 L6.181 -5.073 L11.302 -9.861 L5.989 -5.302 L10.943 -10.248 L5.836 -5.466 L10.594 -10.619 L5.670 -5.643 L10.249 -10.942 L5.466 -5.836 L9.904 -11.265 L5.261 -6.027 L9.511 -11.589 L5.073 -6.181 L9.175 -11.864 L4.825 -6.379 L8.733 -12.186 L4.658 -6.499 L8.334 -12.472 L4.445 -6.652 L7.917 -12.731 L4.222 -6.790 L7.532 -12.970 L3.967 -6.946 L7.067 -13.221 L3.769 -7.051 L6.617 -13.461 L3.555 -7.166 L6.187 -13.655 L3.300 -7.283 L5.757 -13.850 L3.044 -7.397 L5.281 -14.031 L2.816 -7.483 L4.874 -14.184 L2.517 -7.591 L4.352 -14.347 L2.321 -7.651 L3.882 -14.489 L2.070 -7.727 L3.404 -14.600 L1.815 -7.787 L2.962 -14.703 L1.524 -7.852 L2.442 -14.792 L1.302 -7.889 L1.939 -14.874 L1.063 -7.929 L1.469 -14.920 L0.784 -7.957 L1.013 -14.965 L0.491 -7.984 L0.490 -14.984 L0.262 -7.991 L0.000 -15.000 L0.000 -8.000 " fill="none" stroke="#333" stroke-width="0.06"/>
<path d="M0.000 -15.000 L0.000 -8.000 L-0.490 -14.984 L-0.261 -7.991 L-0.944 -14.969 L-0.560 -7.979 L-1.469 -14.920 L-0.783 -7.957 L-1.976 -14.869 L-1.025 -7.934 L-2.442 -14.792 L-1.302 -7.889 L-2.908 -14.715 L-1.578 -7.842 L-3.404 -14.600 L-1.815 -7.787 L-3.828 -14.502 L-2.124 -7.711 L-4.352 -14.347 L-2.321 -7.651 L-4.822 -14.204 L-2.571 -7.575 L-5.281 -14.031 L-2.816 -7.483 L-5.705 -13.871 L-3.095 -7.375 L-6.187 -13.655 L-3.300 -7.283 L-6.651 -13.444 L-3.521 -7.183 L-7.067 -13.221 L-3.769 -7.051 L-7.483 -12.999 L-4.016 -6.918 L-7.917 -12.731 L-4.222 -6.790 L-8.286 -12.502 L-4.490 -6.619 L-8.732 -12.186 L-4.657 -6.499 L-9.131 -11.900 L-4.870 -6.347 L-9.511 -11.589 L-5.073 -6.181 L-9.861 -11.302 L-5.302 -5.989 L-10.248 -10.943 L-5.466 -5.836 L-10.619 -10.594 L-5.643 -5.670 L-10.942 -10.249 L-5.836 -5.466 L-11.265 -9.904 L-6.027 -5.261 L-11.589 -9.511 L-6.181 -5.073 L-11.864 -9.175 L-6.379 -4.825 L-12.186 -8.733 L-6.499 -4.658 L-12.472 -8.334 L-6.652 -4.445 L-12.731 -7.917 L-6.790 -4.222 L-12.970 -7.532 L-6.946 -3.967 L-13.221 -7.067 L-7.051 -3.769 L-13.461 -6.617 L-7.166 -3.555 L-13.655 -6.187 L-7.283 -3.300 L-13.850 -5.757 L-7.397 -3.044 L-14.031 -5.281 L-7.483 -2.816 L-14.184 -4.874 L-7.591 -2.517 L-14.347 -4.352 L-7.651 -2.321 L-14.489 -3.882 L-7.727 -2.070 L-14.600 -3.404 L-7.787 -1.815 L-14.703 -2.962 L-7.852 -1.524 L-14.792 -2.442 L-7.889 -1.302 L-14.874 -1.939 L-7.929 -1.063 L-14.920 -1.469 L-7.957 -0.784 L-14.965 -1.013 L-7.984 -0.491 L-14.984 -0.490 L-7.991 -0.262 L-15.000 0.000 L-8.000 0.000 " fill="none" stroke="#333" stroke-width="0.06"/>
<path d="M-15.000 0.000 L-8.000 0.000 L-14.984 0.490 L-7.991 0.261 L-14.969 0.944 L-7.979 0.560 L-14.920 1.469 L-7.957 0.783 L-14.869 1.976 L-7.934 1.025 L-14.792 2.442 L-7.889 1.302 L-14.715 2.908 L-7.842 1.578 L-14.600 3.404 L-7.787 1.815 L-14.502 3.828 L-7.711 2.124 L-14.347 4.352 L-7.651 2.321 L-14.204 4.822 L-7.575 2.571 L-14.031 5.281 L-7.483 2.816 L-13.871 5.705 L-7.375 3.095 L-13.655 6.187 L-7.283 3.300 L-13.444 6.651 L-7.183 3.521 L-13.221 7.067 L-7.051 3.769 L-12.999 7.483 L-6.918 4.016 L-12.731 7.917 L-6.790 4.222 L-12.502 8.286 L-6.619 4.490 L-12.186 8.732 L-6.499 4.657 L-11.900 9.131 L-6.347 4.870 L-11.589 9.511 L-6.181 5.073 L-11.302 9.861 L-5.989 5.302 L-10.943 10.248 L-5.836 5.466 L-10.594 10.619 L-5.670 5.643 L-10.249 10.942 L-5.466 5.836 L-9.904 11.265 L-5.261 6.027 L-9.511 11.589 L-5.073 6.181 L-9.175 11.864 L-4.825 6.379 L-8.733 12.186 L-4.658 6.499 L-8.334 12.472 L-4.445 6.652 L-7.917 12.731 L-4.222 6.790 L-7.532 12.970 L-3.967 6.946 L-7.067 13.221 L-3.769 7.051 L-6.617 13.461 L-3.555 7.166 L-6.187 13.655 L-3.300 7.283 L-5.757 13.850 L-3.044 7.397 L-5.281 14.031 L-2.816 7.483 L-4.874 14.184 L-2.517 7.591 L-4.352 14.347 L-2.321 7.651 L-3.882 14.489 L-2.070 7.727 L-3.404 14.600 L-1.815 7.787 L-2.962 14.703 L-1.524 7.852 L-2.442 14.792 L-1.302 7.889 L-1.939 14.874 L-1.063 7.929 L-1.469 14.920 L-0.784 7.957 L-1.013 14.965 L-0.491 7.984 L-0.490 14.984 L-0.262 7.991 L0.000 15.000 L0.000 8.000 " fill="none" stroke="#333" stroke-width="0.06"/>
<path d="M0.000 15.000 L0.000 8.000 L0.490 14.984 L0.261 7.991 L0.944 14.969 L0.560 7.979 L1.469 14.920 L0.783 7.957 L1.976 14.869 L1.025 7.934 L2.442 14.792 L1.302 7.889 L2.908 14.715 L1.578 7.842 L3.404 14.600 L1.815 7.787 L3.828 14.502 L2.124 7.711 L4.352 14.347 L2.321 7.651 L4.822 14.204 L2.571 7.575 L5.281 14.031 L2.816 7.483 L5.705 13.871 L3.095 7.375 L6.187 13.655 L3.300 7.283 L6.651 13.444 L3.521 7.183 L7.067 13.221 L3.769 7.051 L7.483 12.999 L4.016 6.918 L7.917 12.731 L4.222 6.790 L8.286 12.502 L4.490 6.619 L8.732 12.186 L4.657 6.499 L9.131 11.900 L4.870 6.347 L9.511 11.589 L5.073 6.181 L9.861 11.302 L5.302 5.989 L10.248 10.943 L5.466 5.836 L10.619 10.594 L5.643 5.670 L10.942 10.249 L5.836 5.466 L11.265 9.904 L6.027 5.261 L11.589 9.511 L6.181 5.073 L11.864 9.175 L6.379 4.825 L12.186 8.733 L6.499 4.658 L12.472 8.334 L6.652 4.445 L12.731 7.917 L6.790 4.222 L12.970 7.532 L6.946 3.967 L13.221 7.067 L7.051 3.769 L13.461 6.617 L7.166 3.555 L13.655 6.187 L7.283 3.300 L13.850 5.757 L7.397 3.044 L14.031 5.281 L7.483 2.816 L14.184 4.874 L7.591 2.517 L14.347 4.352 L7.651 2.321 L14.489 3.882 L7.727 2.070 L14.600 3.404 L7.787 1.815 L14.703 2.962 L7.852 1.524 L14.792 2.442 L7.889 1.302 L14.874 1.939 L7.929 1.063 L14.920 1.469 L7.957 0.784 L14.965 1.013 L7.984 0.491 L14.984 0.490 L7.991 0.262 L15.000 0.000 L8.000 0.000 " fill="none" stroke="#333" stroke-width="0.06"/>
</svg>
